<?xml version="1.0" standalone="no"?>
<!DOCTYPE svg PUBLIC "-//W3C//DTD SVG 20010904//EN"
 "http://www.w3.org/TR/2001/REC-SVG-20010904/DTD/svg10.dtd">
<svg version="1.0" xmlns="http://www.w3.org/2000/svg"
 width="192.000000pt" height="192.000000pt" viewBox="0 0 192.000000 192.000000"
 preserveAspectRatio="xMidYMid meet">
<metadata>
Created by potrace 1.14, written by Peter Selinger 2001-2017
</metadata>
<g transform="translate(0.000000,192.000000) scale(0.100000,-0.100000)"
fill="#000000" stroke="none">
<path d="M865 1909 c-63 -8 -107 -30 -152 -77 -55 -56 -73 -107 -77 -214 -5
-116 -27 -171 -96 -238 -63 -61 -128 -87 -229 -89 -100 -2 -160 -23 -211 -72
-169 -164 -55 -452 179 -452 113 0 223 80 251 183 6 21 12 77 14 124 4 73 9
94 37 146 59 110 145 160 288 165 143 5 226 54 272 159 81 188 -73 392 -276
365z"/>
<path d="M1535 1840 c-81 -18 -160 -83 -192 -159 -9 -20 -17 -74 -19 -121 -6
-156 -59 -247 -180 -306 -42 -20 -71 -26 -150 -30 -109 -4 -157 -22 -214 -76
-50 -49 -71 -107 -76 -206 -5 -123 -26 -175 -93 -243 -68 -67 -122 -88 -244
-93 -138 -6 -225 -61 -266 -169 -46 -123 2 -257 117 -324 62 -36 165 -42 232
-12 107 48 150 120 160 269 8 119 31 178 95 242 59 59 115 80 235 88 146 10
210 45 261 143 20 37 24 67 33 192 7 111 72 205 175 253 40 19 75 26 143 29
106 5 144 17 202 63 62 49 91 114 91 204 0 81 -18 127 -72 182 -58 60 -158 91
-238 74z"/>
<path d="M1582 1142 c-114 -32 -182 -129 -187 -267 -4 -104 -17 -151 -57 -206
-66 -91 -138 -128 -260 -133 -47 -2 -103 -9 -124 -16 -151 -49 -224 -225 -152
-365 98 -194 371 -195 470 -2 15 31 23 69 28 143 7 122 37 192 107 253 61 54
128 78 227 80 99 3 161 27 214 85 54 59 76 121 69 196 -15 171 -171 279 -335
232z"/>
</g>
</svg>
